<?xml version="1.0" encoding="utf-8"?>
<!-- Generator: Adobe Illustrator 17.1.0, SVG Export Plug-In . SVG Version: 6.00 Build 0)  -->
<!DOCTYPE svg PUBLIC "-//W3C//DTD SVG 1.1//EN" "http://www.w3.org/Graphics/SVG/1.1/DTD/svg11.dtd">
<svg version="1.1" id="City" xmlns="http://www.w3.org/2000/svg" xmlns:xlink="http://www.w3.org/1999/xlink" x="0px" y="0px"
	 viewBox="0 0 554.371 126.083" enable-background="new 0 0 554.371 126.083" xml:space="preserve">
<defs>
	<rect id="SVGID_1_" x="0" y="0" width="554.371" height="126.083"/>
</defs>
<clipPath id="SVGID_2_">
	<use xlink:href="#SVGID_1_"  overflow="visible"/>
</clipPath>
<g id="Back" clip-path="url(#SVGID_2_)">
	<g>
		<polygon fill-rule="evenodd" clip-rule="evenodd" fill="#6194B8" points="547.464,102.998 547.464,96.502 543.13,96.502 
			543.13,94.697 542.225,94.697 542.225,96.502 540.42,96.502 540.42,102.998 537.352,102.998 537.352,116.539 534.824,116.539 
			534.824,105.165 533.379,105.165 533.379,101.197 527.602,101.197 527.602,105.165 523.085,105.165 523.085,92.712 
			519.295,92.712 519.295,90.907 511.89,90.907 511.89,92.712 509.905,92.712 509.905,105.165 500.516,105.165 500.516,123.762 
			529.406,123.762 534.824,123.762 537.352,123.762 540.059,123.762 554.371,123.762 554.371,102.998 		"/>
		<polygon fill-rule="evenodd" clip-rule="evenodd" fill="#6194B8" points="473.792,101.741 469.098,101.741 469.098,103.177 
			466.569,103.177 466.569,110.4 463.859,110.4 463.859,89.093 460.43,89.093 460.43,88.017 456.997,88.017 456.997,89.093 
			455.735,89.093 455.735,84.584 454.291,84.584 454.291,89.093 453.207,89.093 453.207,70.858 449.957,70.858 449.957,66.71 
			441.651,66.71 441.651,70.858 436.052,70.858 436.052,123.762 450.136,123.762 453.207,123.762 460.069,123.762 463.859,123.762 
			466.569,123.762 471.625,123.762 480.471,123.762 480.471,103.177 473.792,103.177 		"/>
		<polygon fill-rule="evenodd" clip-rule="evenodd" fill="#6194B8" points="393.441,95.474 391.283,95.474 391.283,92.708 
			383.901,92.708 383.901,95.474 382.667,95.474 382.667,123.762 392.993,123.762 393.441,123.762 401.077,123.762 401.077,106.59 
			393.441,106.59 		"/>
		<polygon fill-rule="evenodd" clip-rule="evenodd" fill="#6194B8" points="79.811,89.621 70.382,89.621 70.382,121.948 
			75.767,121.948 75.767,123.762 90.248,123.762 90.248,98.168 79.811,98.168 		"/>
		<rect x="21.156" y="96.375" fill-rule="evenodd" clip-rule="evenodd" fill="#6194B8" width="11.23" height="11.071"/>
		<polygon fill-rule="evenodd" clip-rule="evenodd" fill="#6194B8" points="211.073,86.295 211.073,65.667 210.493,65.667 
			210.493,64.191 209.958,64.191 209.958,56.238 209.958,53.825 209.958,51.106 208.994,53.431 204.989,42.142 204.989,39.412 
			204.147,39.412 204.147,36.399 203.72,36.399 203.72,27.998 203.422,27.998 203.422,36.399 202.993,36.399 202.993,39.412 
			202.151,39.412 202.151,42.131 198.144,53.427 197.18,51.106 197.18,53.825 197.18,56.238 197.18,64.191 196.647,64.191 
			196.647,65.667 196.068,65.667 196.068,86.295 186.468,86.295 186.317,86.295 184.829,92.125 185.294,92.125 185.294,123.762 
			186.317,123.762 186.468,123.762 196.068,123.762 211.073,123.762 211.224,123.762 211.224,92.125 212.712,92.125 211.224,86.295 
					"/>
		<rect x="108.436" y="77.627" fill-rule="evenodd" clip-rule="evenodd" fill="#6194B8" width="12.457" height="46.135"/>
		<polygon fill-rule="evenodd" clip-rule="evenodd" fill="#6194B8" points="130.996,83.223 126.282,83.223 126.282,85.371 
			124.6,85.371 124.6,123.762 135.374,123.762 135.374,85.371 130.996,85.371 		"/>
		<polygon fill-rule="evenodd" clip-rule="evenodd" fill="#6194B8" points="13.009,86.644 12.219,86.644 12.219,86.251 
			10.794,86.251 10.794,86.644 9.925,86.644 9.925,82.294 9.449,82.294 9.449,87.601 5.417,87.601 5.417,86.644 1.067,86.644 
			1.067,87.601 0,87.601 0,122.96 16.834,122.96 16.834,87.601 13.009,87.601 		"/>
		<rect x="171.408" y="75.754" fill-rule="evenodd" clip-rule="evenodd" fill="#6194B8" width="11.448" height="48.008"/>
		<polygon fill-rule="evenodd" clip-rule="evenodd" fill="#6194B8" points="335.283,79.037 334.926,79.037 334.926,78.446 
			333.029,78.446 333.029,79.037 331.906,79.037 331.906,75.898 328.707,75.898 328.707,75.123 325.803,75.123 325.803,75.898 
			323.73,75.898 323.73,79.037 320.707,79.037 320.707,81.794 317.092,81.794 317.092,79.45 313.123,79.45 313.123,81.794 
			312.146,81.794 312.146,83.759 312.146,84.295 312.146,86.438 307.793,86.438 307.793,80.338 303.646,80.338 303.646,86.438 
			299.289,86.438 299.289,123.762 312.146,123.762 329.291,123.762 342.148,123.762 342.148,84.295 343.221,84.295 343.221,81.794 
			335.283,81.794 		"/>
		<rect x="250.715" y="66.881" fill-rule="evenodd" clip-rule="evenodd" fill="#6194B8" width="9.504" height="50.685"/>
		<polygon fill-rule="evenodd" clip-rule="evenodd" fill="#6194B8" points="281.204,70.048 269.326,70.048 269.326,73.215 
			267.347,73.215 267.347,103.312 291.503,103.312 291.503,73.215 281.204,73.215 		"/>
	</g>
</g>
<g id="Mid" clip-path="url(#SVGID_2_)">
	<g>
		<polygon fill-rule="evenodd" clip-rule="evenodd" fill="#3E5666" points="26.787,92.426 24.426,92.426 24.426,93.78 23.581,93.78 
			23.581,98.847 18.343,98.847 18.343,96.82 13.274,96.82 13.274,98.847 12.43,98.847 12.43,115.575 27.295,115.575 27.295,106.114 
			30.677,106.114 30.677,93.78 26.787,93.78 		"/>
		<polygon fill-rule="evenodd" clip-rule="evenodd" fill="#3E5666" points="387.263,83.704 378.917,83.704 378.917,123.762 
			384.342,123.762 387.263,123.762 399.779,123.762 399.779,102.55 387.263,102.55 		"/>
		<polygon fill-rule="evenodd" clip-rule="evenodd" fill="#3E5666" points="515.847,103.035 515.847,114.165 505.782,114.165 
			505.782,76.279 503.769,76.279 500.694,73.175 498.357,73.175 498.357,71.214 492.456,71.214 492.456,73.175 490.016,73.175 
			490.016,67.036 476.971,67.036 476.971,76.279 474.748,76.279 474.748,114.165 466.542,114.165 466.542,106.237 455.691,106.237 
			455.691,113.333 451.104,113.333 451.104,81.621 436.5,81.621 436.5,123.762 447.346,123.762 451.104,123.762 455.691,123.762 
			459.862,123.762 463.204,123.762 466.542,123.762 474.748,123.762 480.729,123.762 502.842,123.762 505.782,123.762 
			515.847,123.762 524.541,123.762 533.371,123.762 533.371,103.035 		"/>
		<polygon fill-rule="evenodd" clip-rule="evenodd" fill="#3E5666" points="266.672,84.375 261.667,84.375 261.667,93.974 
			259.163,93.974 259.163,106.237 247.48,106.237 247.48,123.762 272.514,123.762 272.514,112.333 277.104,112.333 277.104,93.974 
			266.672,93.974 		"/>
		<polygon fill-rule="evenodd" clip-rule="evenodd" fill="#3E5666" points="199.493,100.233 189.063,100.233 189.063,111.915 
			199.493,111.915 199.493,120.678 216.602,120.678 216.602,72.274 199.493,72.274 		"/>
		<rect x="177.797" y="91.632" fill-rule="evenodd" clip-rule="evenodd" fill="#3E5666" width="9.953" height="32.13"/>
		<rect x="117.658" y="95.387" fill-rule="evenodd" clip-rule="evenodd" fill="#3E5666" width="15.493" height="28.375"/>
		<polygon fill-rule="evenodd" clip-rule="evenodd" fill="#3E5666" points="326.759,100.233 319.246,100.233 319.246,119.007 
			326.759,119.007 326.759,120.678 340.946,120.678 340.946,96.474 326.759,96.474 		"/>
		<polygon fill-rule="evenodd" clip-rule="evenodd" fill="#3E5666" points="314.584,90.216 305.479,90.216 305.479,93.557 
			301.305,93.557 301.305,117.757 316.33,117.757 316.33,93.557 314.584,93.557 		"/>
		<rect x="2.46" y="106.789" fill-rule="evenodd" clip-rule="evenodd" fill="#3E5666" width="7.096" height="6.084"/>
		<rect x="66.321" y="97.157" fill-rule="evenodd" clip-rule="evenodd" fill="#3E5666" width="7.604" height="20.612"/>
		<rect x="77.811" y="104.256" fill-rule="evenodd" clip-rule="evenodd" fill="#3E5666" width="6.925" height="10.473"/>
	</g>
</g>
<g id="Foliage" clip-path="url(#SVGID_2_)">
	<g>
		<path fill="#1B2934" d="M555.563,97.542c-4.531,0.801-9.125,1.322-13.825,1.382c-11.852-0.145-23.021-3.235-34.202-6.326
			c-11.552-3.198-23.12-6.397-35.521-6.397c-11.233,0-22.337,1.671-33.169,4.328V41.475v-1.509v-1h-0.834v1h-21.239v-9.734h-0.833
			v9.734h-17.891v-1h-0.837v1v1.509v68.608h-1.889v-1.905h-4.469v1.905h-2.29v-4.882h-6.1V91.831h0.921v-1.036h-0.921V76.294h0.921
			v-1.036h-0.921v-1.61h0.921l-3.223-12.66h-42.122l-3.222,12.66h0.92v1.61h-0.92v1.036h0.92v14.501h-0.92v1.036h0.92v11.576h-4.389
			v14.188h-6.679v-11.684h-2.505v-2.564h-11.925v-3.671v-1.35v-1.21h-0.504v1.21h-2.509V86.542v-1.163v-1.397h-0.504v1.397h-1.452
			V76.35v-1.361v-1.194h-0.504v1.194h-2.207V56.88h0.627v-2.317h-0.674l-3.115-6.524h-16.565v-2.56h-1.052v2.56h-1.957l-3.116,6.524
			h-0.678v2.317h0.631v18.108h-2.21v-1.194h-0.5v1.194v1.361v9.028h-1.457v-1.397h-0.5v1.397v1.163v11.786h-2.512v-1.21h-0.5v1.21
			v1.35v12.492h-3.342v9.243h-4.437v-16.203h-3.588V70.691h-4.135v-5.703h-4.135v-5.702h-4.278v-5.988v-5.132h-1.119v-3.103h-0.704
			c-0.833-3.281-5.67-3.615-8.233-6.691V26.196h-0.42v12.178c-2.6,3.162-7.402,3.422-8.23,6.688h-0.708v3.103h-1.119v5.132h-17.822
			v57.206h-5.136v-2.981h-11.684v2.981h-3.754v10.909h-6.885V62.067v-5.54h-5.394v-3.131h-0.329v3.131h-2.14v-5.599h-0.329v5.599
			h-0.631v5.54h-32.84v-5.54h-0.889v-5.599h-0.329v5.599h-2.794v-1.075h-3.123v1.075h-1.691v64.886h-1.881v-10.909h-11.076V17.441
			h-5.687v-2.115h1.329v-1.31l-7.407-0.976h1.359v-2.897h-0.881V5.456h-1.282V3.449h-0.512v2.008H98.7V0h-0.512v5.456h-1.183v4.687
			h-0.881v2.897h1.355l-7.403,0.976v1.31h1.325v2.115H85.72v90.39c-0.024,0.106-0.05,0.212-0.067,0.331
			c-0.373,0.163-0.627,0.409-0.627,0.409s0.234,0.281,0.599,0.483c0.017,0.143,0.04,0.29,0.08,0.437
			c-0.171-0.091-0.294-0.135-0.294-0.135s-0.163,0.385-0.167,0.846l-0.023,0.004c-0.103-0.274-0.262-0.548-0.492-0.774
			c-0.734-0.722-1.96-0.662-1.96-0.662s-0.021,0.857,0.404,1.56c-0.313-0.108-0.694-0.183-1.079-0.135
			c-0.198-0.06-0.421-0.107-0.651-0.123l0.119-0.131c0.417,0.064,0.81-0.08,0.81-0.08s-0.119-0.421-0.429-0.726l0.028-0.183
			l0.107,0.139c0,0,0.981-0.738,1.088-1.762c0.107-1.024-0.698-1.945-0.698-1.945s-0.98,0.734-1.088,1.759
			c-0.027,0.233,0,0.46,0.048,0.67c-0.35,0.179-0.861,0.508-1.111,1.044c-0.25,0.524-0.187,1.119-0.1,1.504l-0.147,0.092
			c-0.063-0.227-0.127-0.373-0.127-0.373s-0.497,0.179-0.956,0.566l-2.537-2.994c0.36-0.069,1.129-0.279,1.58-0.866
			c0.604-0.786,0.405-1.948,0.405-1.948s-0.925,0.087-1.552,0.658c-0.21-0.579-0.758-0.96-0.758-0.96s-0.548,0.679-0.444,1.404
			c0.063,0.433,0.337,0.782,0.556,0.996c-0.015,0.176-0.013,0.328-0.008,0.454l-1.345-1.588c0.04-0.079,0.087-0.154,0.119-0.239
			c0.479-1.285-0.254-2.746-0.254-2.746s-0.855,0.353-1.484,1.075L47.094,73l-26.805,31.644c-0.032-0.079-0.057-0.134-0.057-0.134
			s-1.223,0.496-1.615,1.528c-0.093,0.241-0.12,0.488-0.126,0.729l-0.765,0.903c-0.274-0.049-0.495-0.032-0.495-0.032v0.043
			c-0.413-0.615-0.913-0.992-0.913-0.992s-1.079,1.227-0.94,2.592c0.016,0.131,0.04,0.258,0.075,0.381
			c-0.075,0.083-0.142,0.175-0.198,0.278c-0.14,0.269-0.158,0.561-0.143,0.816l-0.105,0.124c-0.156-0.018-0.318-0.036-0.498-0.036
			c0.179-0.273,0.286-0.571,0.354-0.806c0.21-0.064,0.349-0.135,0.349-0.135s-0.329-0.77-0.992-1.012
			c-0.666-0.238-1.412,0.147-1.412,0.147s0.183,0.425,0.543,0.738c-0.11,0.052-0.218,0.115-0.317,0.187l-0.083-0.063
			c0,0-0.119,0.143-0.238,0.365l-0.044,0.06l-0.008-0.123c-0.071-0.767-0.802-1.317-0.802-1.317s-0.075,0.083-0.17,0.226
			c-0.127-0.095-0.258-0.175-0.381-0.242c0.055-0.289,0.055-0.496,0.055-0.496s-0.127-0.008-0.321,0.004
			c-0.016-0.131-0.039-0.273-0.083-0.416c0.175-0.175,0.333-0.39,0.437-0.636c0.361-0.857-0.016-1.841-0.092-2.023l0.056-0.079
			c0,0-0.802-0.584-1.615-0.421c-0.813,0.159-1.337,1-1.337,1s0.777,0.56,1.575,0.425c-0.091,0.123-0.17,0.258-0.234,0.404
			l-0.035,0.1c-0.354-0.123-0.643-0.146-0.643-0.146s-0.08,0.539,0.079,1.099c-0.202-0.31-0.473-0.611-0.834-0.821
			c-1.039-0.607-2.412-0.194-2.412-0.194s0.198,0.885,0.802,1.552c-0.338-0.075-0.73-0.123-1.136-0.088
			c0.119-0.06,0.19-0.106,0.19-0.106s-0.397-0.699-1.056-0.854c-0.658-0.15-1.325,0.298-1.325,0.298s0.401,0.698,1.059,0.853
			c0.096,0.021,0.194,0.032,0.294,0.028c-1.028,0.477-1.596,1.583-1.715,1.846l-0.183,0.008l0.017-0.075
			c0.047-0.143,0.083-0.294,0.083-0.453c0.012-0.523-0.294-0.988-0.484-1.226c0.183-0.417,0.234-0.774,0.234-0.774
			s-1.175-0.266-2.016,0.306l-0.1,0.075c-0.214,0.012-0.444,0.048-0.675,0.115c0.084-0.186,0.151-0.389,0.167-0.607
			c0.083-0.94-0.671-1.777-0.671-1.777s-0.889,0.69-0.973,1.631c-0.039,0.452,0.115,0.877,0.282,1.198
			c-0.083,0.167-0.194,0.452-0.187,0.754c-0.139,0.274-0.23,0.54-0.282,0.727c-0.321-0.127-0.65-0.171-0.92-0.183l-0.111-0.231
			c-0.5-0.865-1.659-1.127-1.659-1.127s-0.179,0.592-0.091,1.25c-0.179-0.381-0.433-0.77-0.802-1.063
			c-1.071-0.857-2.687-0.619-2.687-0.619s0.087,1.144,0.742,2.017c-0.48-0.115-1.063-0.167-1.623,0.008
			c-1.31,0.404-2.021,1.877-2.021,1.877s0.365,0.21,0.893,0.365c-0.162,0.425-0.273,0.929-0.206,1.448
			c0.179,1.361,1.512,2.31,1.512,2.31s1.04-1.258,0.865-2.619c-0.052-0.4-0.206-0.762-0.396-1.079l0.06-0.016
			c0.909-0.278,1.527-1.076,1.821-1.532c0.802,0.396,1.719,0.373,2.076,0.341l-0.088,0.056c-0.19,0.131-0.354,0.298-0.484,0.473
			c-0.146-0.298-0.293-0.488-0.293-0.488s-0.778,0.512-1.068,1.31c-0.452-0.417-1.114-0.496-1.114-0.496s-0.06,0.317-0.013,0.698
			c-0.27-0.02-0.456,0-0.456,0s0.036,1.179,0.778,1.83c0.122,0.107,0.262,0.194,0.4,0.262l-0.119,0.031
			c-0.317,0.096-0.571,0.31-0.762,0.517c-0.25,0.039-0.409,0.083-0.409,0.083s0.028,0.135,0.096,0.342l-0.06,0.11l0.119,0.06
			c0.127,0.334,0.333,0.782,0.662,1.179l-0.02,0.017l-0.146,0.174h-0.088c-0.131-0.543-0.698-0.881-0.698-0.881
			s-0.095,0.139-0.175,0.346c-0.183-0.25-0.552-0.663-1.063-0.79c-0.746-0.179-1.512,0.325-1.512,0.325s0.448,0.798,1.194,0.981
			c0.5,0.123,1.008-0.064,1.29-0.198c-0.02,0.119-0.028,0.25-0.004,0.381l-0.198,0.079c-1.246,0.58-1.751,2.131-1.751,2.131
			s1.513,0.619,2.759,0.044c0.56-0.262,0.968-0.718,1.25-1.142c-0.06,0.321-0.104,0.904,0.167,1.392
			c-0.128-0.016-0.25-0.016-0.361-0.016l-0.115-0.06c-0.52-0.227-1.135,0.048-1.135,0.048s0.222,0.635,0.742,0.856l0.158,0.052
			c0.077,0.157,0.173,0.318,0.292,0.469h-4.824v4.671h411.451h3.151h152.327v-4.671h-4.771v-0.396h4.578v-3.009h-4.578v-1.234h4.771
			v-0.662h-1.917v-1.167h1.917v-0.821h-2.44v-3.825c0.812-0.45,1.624-0.901,2.44-1.338v-1.131c-0.733,0.389-1.461,0.792-2.19,1.192
			v-9.867l2.19,3.217v-0.889l-1.797-2.64c0.599-0.094,1.201-0.181,1.797-0.285V97.542z M-1.425,117.118c0,0,0,0.001,0,0.001
			c0.02,0.057,0.047,0.11,0.076,0.162l-0.068,0.04c-0.115-0.095-0.187-0.146-0.187-0.146s-0.107,0.131-0.242,0.349
			c-0.063,0-0.158,0-0.273,0.004c-0.04-0.369-0.151-0.81-0.429-1.166l-0.202-0.223c0.091-0.091,0.183-0.198,0.242-0.325l0.016-0.032
			c0.107,0.044,0.21,0.076,0.306,0.104c-0.286,0.171-0.461,0.329-0.461,0.329S-2.153,116.839-1.425,117.118z M-2.147,114.448
			l0.092-0.087l-0.028,0.178L-2.147,114.448z M1.369,114.229c0.083-0.091,0.158-0.202,0.214-0.321
			c0.08-0.166,0.119-0.345,0.131-0.516l0.032,0.008c-0.027,0.25-0.016,0.5,0.012,0.734l-0.143-0.04c0,0-0.092,0.33-0.036,0.687
			l-0.008,0.008l0.014,0.036c-0.051,0.01-0.101,0.022-0.154,0.035c0.079-0.354,0.091-0.622,0.091-0.622S1.464,114.234,1.369,114.229
			z M7.263,113.539c0.273,0.063,0.722,0.123,1.114-0.064l0.013-0.008c0.019,0.127,0.043,0.266,0.079,0.413
			c-0.317-0.052-0.675-0.06-1.023,0.048c-0.14,0.043-0.271,0.102-0.39,0.17C7.131,113.936,7.207,113.746,7.263,113.539z
			 M7.088,111.733l0.012-0.027c0.063,0.091,0.139,0.183,0.223,0.266l-0.136-0.031L7.088,111.733z M-3.067,119.94
			c0.166-0.083,0.325-0.186,0.468-0.317l0.139-0.139v0.052c-0.087,0.135-0.17,0.297-0.222,0.476
			c-0.135-0.031-0.266-0.051-0.389-0.063L-3.067,119.94z M0.985,117.035l0.094,0.059c0.032,0.104,0.071,0.215,0.123,0.334
			c-0.248-0.142-0.563-0.267-0.905-0.257C0.504,117.154,0.741,117.114,0.985,117.035z M1.167,120.21
			c0.018-0.039,0.027-0.085,0.044-0.125c0.006,0.023,0.01,0.046,0.016,0.069C1.207,120.174,1.186,120.189,1.167,120.21z
			 M1.417,118.059l0.095-0.079l0.088,0.119l-0.163-0.028L1.417,118.059z M0.85,120.765c-0.044,0.14-0.064,0.282-0.064,0.417
			l-0.198-0.095C0.635,121.032,0.738,120.92,0.85,120.765z M3.889,118.336c0.084,0.119,0.187,0.223,0.298,0.306l-0.202,0.1
			C3.973,118.67,3.944,118.519,3.889,118.336z M3.813,118.853l-0.063,0.06c-0.273-0.013-0.464,0.02-0.464,0.02
			s0.009,0.096,0.038,0.239c-0.047-0.033-0.096-0.06-0.145-0.088l0.015-0.251c0.294,0.017,0.544-0.004,0.683-0.023L3.813,118.853z
			 M7.008,115.966C7.008,115.967,7.008,115.967,7.008,115.966C7.008,115.967,7.008,115.967,7.008,115.966L7.008,115.966z
			 M7.756,120.341c-0.003,0.002-0.007,0.002-0.01,0.004c0-0.001,0-0.003,0.001-0.004H7.756z M8.072,115.733
			c-0.004-0.012-0.004-0.024-0.008-0.035c-0.004-0.011-0.01-0.021-0.014-0.031l0.142-0.055l0.127,0.123
			C8.239,115.73,8.155,115.731,8.072,115.733z M9.694,117.152c-0.016-0.011-0.028-0.021-0.045-0.033
			c-0.094-0.146-0.19-0.281-0.279-0.387c-0.016-0.169-0.044-0.332-0.088-0.479c0.4,0.099,0.795,0.093,1.125,0.056L9.694,117.152z
			 M5.443,116.589c-0.168,0.022-0.281,0.044-0.322,0.054c-0.013-0.088-0.018-0.174-0.041-0.263c0.245-0.143,0.44-0.325,0.547-0.44
			l0.171,0.154l0.036,0.163C5.705,116.348,5.572,116.462,5.443,116.589z M0.468,121.043l-0.071-0.023
			c-0.134-0.035-0.267-0.044-0.399-0.044c-0.065-0.073-0.135-0.14-0.208-0.198c0.053-0.15,0.086-0.316,0.115-0.483
			C0.102,120.646,0.342,120.917,0.468,121.043z M-4.024,121.059c0,0-0.052-0.139-0.154-0.31c0.135-0.016,0.27-0.056,0.4-0.115
			l0.171-0.099c0.056,0.225,0.16,0.484,0.302,0.735c-0.344-0.041-0.644,0.035-0.644,0.035s0.007,0.033,0.019,0.081
			c-0.056,0.001-0.11-0.008-0.166-0.002c-0.146-0.06-0.246-0.083-0.246-0.083l-0.02,0.067l-0.092-0.19
			C-4.207,121.138-4.024,121.059-4.024,121.059z M-4.58,114.848c0.33,0.151,0.782,0.29,1.246,0.227l0.067,0.107l-0.127,0.198
			c-0.047,0.1-0.079,0.202-0.095,0.306c-0.19-0.079-0.369-0.131-0.512-0.163C-4.171,115.246-4.39,115.015-4.58,114.848z
			 M85.478,111.05l0.167,0.207l-0.215,0.067C85.454,111.229,85.466,111.138,85.478,111.05z M85.16,112.9
			c-0.004,0.44,0.071,1.155,0.48,1.719c0.02,0.099,0.043,0.198,0.067,0.302l-0.028,0.023l-0.127-0.012
			c-0.127-0.092-0.269-0.171-0.429-0.223c0.009-0.393-0.102-0.714-0.102-0.714s-0.219,0.06-0.477,0.198
			c0.119-0.504,0.02-1.021-0.079-1.354C84.628,112.876,84.883,112.912,85.16,112.9z M83.791,110.963l0.004,0.004l-0.096,0.115
			c-0.099,0.131-0.174,0.273-0.23,0.421l-0.04-0.115l-0.012-0.024C83.572,111.221,83.699,111.079,83.791,110.963z M82.572,112.492
			c0.008,0.182,0.044,0.452,0.151,0.722c-0.115-0.095-0.23-0.175-0.338-0.234C82.478,112.821,82.537,112.65,82.572,112.492z
			 M81.866,113.496c-0.003,0-0.007,0-0.01,0c0.003-0.002,0.007-0.003,0.01-0.005L81.866,113.496z M81.441,111.952
			c0.084,0.019,0.171,0.035,0.262,0.044c-0.095,0.051-0.186,0.106-0.269,0.178l-0.079-0.194L81.441,111.952z M12.568,113.217
			c0.131,0.023,0.274,0.037,0.423,0.042l-0.021,0.025c-0.121,0.031-0.257,0.07-0.391,0.145c-0.302,0-0.742,0.051-1.083,0.305
			c-0.069,0.053-0.123,0.117-0.179,0.179c0.011-0.057,0.021-0.114,0.029-0.161c0.043-0.057,0.101-0.137,0.162-0.24
			c0.183-0.06,0.345-0.151,0.488-0.254c0.166,0.016,0.337,0.012,0.512-0.024L12.568,113.217z M11.624,111.503
			c0.183,0.102,0.349,0.178,0.483,0.229l-0.004,0.028l0.119,0.012l0.056,0.02l-0.075,0.012c-0.219,0.048-0.413,0.143-0.583,0.259
			c-0.056-0.115-0.119-0.215-0.187-0.306C11.501,111.681,11.565,111.598,11.624,111.503z M10.088,111.396
			c0.21-0.067,0.396-0.155,0.56-0.246c0.016,0.214,0.079,0.413,0.15,0.571c-0.095,0.179-0.194,0.405-0.226,0.651l-0.171,0.123
			c-0.096-0.111-0.206-0.211-0.317-0.294l0.044-0.219C10.151,111.781,10.132,111.583,10.088,111.396z M9.838,108.65l0.016,0.035
			l0.012-0.004l-0.123,0.067c-0.051-0.107-0.119-0.21-0.206-0.301l-0.04-0.1C9.6,108.467,9.715,108.566,9.838,108.65z
			 M6.302,110.435c0.754-0.36,1.19-1.131,1.385-1.567c0.346,0.111,0.699,0.144,1.013,0.14l0.115,0.139
			c0.099,0.095,0.214,0.162,0.333,0.214c-0.075,0.123-0.135,0.25-0.187,0.377c-0.817,0.119-1.473,0.703-1.473,0.703
			s0.071,0.087,0.194,0.214c-0.531-0.075-1.008,0.048-1.008,0.048l0.024,0.103L6.436,110.9c-0.179-0.171-0.333-0.29-0.425-0.354
			C6.107,110.515,6.207,110.479,6.302,110.435z M3.988,110.586c0.325,0.071,0.702,0.111,1.092,0.075
			c0.25,0.008,0.516-0.008,0.781-0.071c-0.175,0.27-0.639,1.067-0.591,1.937c-0.211,0.175-0.334,0.321-0.334,0.321
			s0.187,0.183,0.488,0.369c0.056,0.139,0.123,0.271,0.202,0.394c-0.174-0.092-0.293-0.136-0.293-0.136s-0.119,0.271-0.187,0.651
			c-0.144,0.186-0.286,0.44-0.306,0.73c-0.017,0.194,0.031,0.381,0.095,0.543c-0.115-0.035-0.234-0.056-0.357-0.064
			c0.096-0.508,0.04-0.94,0.04-0.94l-0.143,0.016c0.298-0.369,0.4-0.806,0.4-0.806s-0.325-0.102-0.714-0.087
			c0.356-1.273-0.385-2.631-0.385-2.631l-0.005,0.004C3.869,110.773,3.94,110.662,3.988,110.586z M3.373,116.904l0.246,0.242
			c-0.004,0.039-0.002,0.087-0.004,0.13c-0.098-0.014-0.205-0.019-0.314-0.019c-0.064-0.072-0.125-0.147-0.201-0.21l-0.012-0.032
			C3.183,116.984,3.278,116.948,3.373,116.904z M2.837,111.507c-0.103,0.087-0.206,0.187-0.305,0.293
			c-0.215-0.091-0.405-0.135-0.517-0.154l-0.075-0.215C2.186,111.511,2.512,111.571,2.837,111.507z M0.706,109.785
			c0.298-0.04,0.615-0.127,0.901-0.306l-0.017,0.167c-0.008,0.302,0.092,0.579,0.211,0.806c-0.004,0.131,0.008,0.25,0.023,0.349
			l-0.123,0.155l-0.131-0.19c-0.285-0.373-0.667-0.635-1.044-0.817L0.706,109.785z M0.4,113.404l-0.043,0.107l-0.028-0.032
			L0.4,113.404z M-0.294,118.392l0.081,0.028c-0.02,0.048-0.035,0.1-0.053,0.15l-0.076,0.064l-0.067-0.131L-0.294,118.392z
			 M-0.667,112.233c0.016,0.092,0.036,0.179,0.06,0.267c-0.115-0.131-0.21-0.223-0.258-0.267H-0.667z M-0.921,110.444
			c0.004,0.106,0.016,0.222,0.036,0.341c-0.088-0.123-0.19-0.238-0.306-0.341C-1.107,110.448-1.016,110.448-0.921,110.444z
			 M-3.897,111.042c-0.091,0.032-0.183,0.071-0.273,0.115c-0.012-0.095-0.04-0.294-0.1-0.544
			C-4.167,110.777-4.036,110.919-3.897,111.042z M-4.659,113.317c0.429-0.016,0.937-0.111,1.369-0.409
			c0.444-0.306,0.719-0.773,0.885-1.175l0.04,0.036c0.448,0.354,1.027,0.448,1.444,0.46c-0.104,0.115-0.523,0.607-0.671,1.23
			c-0.103,0.115-0.198,0.242-0.273,0.385l-0.127-0.071l0.052-0.234c0.083-0.726-0.484-1.389-0.484-1.389s-0.579,0.429-0.75,1.052
			l-0.123,0.214l-0.25,0.028l-0.155,0.035c-0.353-0.091-0.687-0.043-0.687-0.043s0.013,0.15,0.072,0.341
			c-0.48,0.338-0.767,0.786-0.767,0.786l0.036,0.027c-0.032,0.048-0.075,0.123-0.127,0.223c-0.021-0.123-0.052-0.274-0.104-0.433
			C-5.032,114.119-4.767,113.757-4.659,113.317z M-5.421,115.436l-0.044,0.194l-0.079-0.032L-5.421,115.436z M-6.155,118.452
			c0.087-0.15,0.159-0.289,0.214-0.404c0.255,0.083,0.517,0.131,0.767,0.154l-0.024,0.211c-0.008,0.222,0.028,0.433,0.084,0.631
			C-5.477,118.678-5.965,118.507-6.155,118.452z M536.542,99.677c1.5,0.121,3.011,0.201,4.533,0.233l-4.533,12.104V99.677z
			 M519.141,96.7c1.478,0.358,2.96,0.698,4.448,1.015l-4.448,5.419V96.7z M514.266,100.522l3.875-3.663v6.173
			c-1.161-0.525-2.331-1.021-3.501-1.514v-0.996H514.266z M507.759,93.691c1.474,0.408,2.948,0.813,4.423,1.213l-4.423,3.505V93.691
			z M501.52,91.982c1.655,0.444,3.308,0.899,4.959,1.355l-4.959,3.278V91.982z M506.759,93.749v4.704
			c-1.577-0.551-3.161-1.072-4.755-1.557L506.759,93.749z M495.829,90.517c1.46,0.357,2.915,0.729,4.368,1.113l-4.368,3.357V90.517z
			 M500.519,92.014v4.445c-1.421-0.412-2.849-0.796-4.284-1.153L500.519,92.014z M489.809,89.161
			c1.569,0.318,3.131,0.665,4.688,1.034l-4.688,3.533V89.161z M494.829,90.566v4.398c-1.51-0.354-3.028-0.675-4.554-0.963
			L494.829,90.566z M472.265,87.204c1.575,0.006,3.137,0.064,4.688,0.167l-4.688,4.673V87.204z M466.573,87.341
			c1.561-0.073,3.124-0.116,4.69-0.127v4.824l-4.69-4.671V87.341z M466.573,88.07l4.224,4.209c-1.415,0.018-2.823,0.066-4.224,0.146
			V88.07z M460.664,87.766c1.633-0.154,3.269-0.277,4.909-0.367v5.088c-0.024,0.002-0.048,0.003-0.072,0.004l-4.837-4.707V87.766z
			 M460.664,88.482l4.166,4.054c-1.396,0.105-2.784,0.242-4.166,0.405V88.482z M454.974,88.423c1.56-0.215,3.123-0.401,4.69-0.562
			v5.205c-0.03,0.004-0.06,0.008-0.09,0.012l-4.6-4.237V88.423z M454.974,89.52l3.959,3.644c-1.326,0.18-2.645,0.386-3.959,0.618
			V89.52z M453.974,88.552v5.36l-4.837-4.568C450.745,89.054,452.356,88.787,453.974,88.552z M448.953,89.852l4.459,4.211
			c-1.494,0.287-2.98,0.607-4.459,0.957V89.852z M447.953,89.572v5.513l-4.495-4.6C444.952,90.158,446.45,89.854,447.953,89.572z
			 M443.263,90.995l4.277,4.376c-1.433,0.359-2.858,0.747-4.277,1.162V90.995z M438.846,91.572c1.138-0.28,2.274-0.565,3.417-0.823
			v5.973l-3.417-3.188V91.572z M438.846,94.208l2.955,2.76c-0.991,0.304-1.972,0.644-2.955,0.974V94.208z M442.513,112.364h-2.251
			v1.111h-1.416V98.974c1.218-0.413,2.439-0.813,3.667-1.184V112.364z M448.203,107.622h-0.519v0.949h-0.473v4.904h-4.107v-1.111
			h-0.091v-14.72c1.719-0.512,3.45-0.981,5.19-1.41V107.622z M454.224,107.622h-5.521V96.11c1.828-0.441,3.668-0.834,5.521-1.178
			V107.622z M454.724,107.622v-12.78c1.719-0.31,3.449-0.579,5.19-0.801v20.082h-1.337v-5.552h-3.313v-0.949H454.724z
			 M459.391,114.944v1.167h-0.813v-1.167H459.391z M462.843,121.412h-4.266v-4.64h4.266V121.412z M462.843,116.111h-1.904v-1.167
			h1.904V116.111z M465.823,109.519h-1.246v1.583h-1.734v3.021h-2.429V93.974c1.791-0.218,3.595-0.382,5.409-0.501V109.519z
			 M471.515,108.729h-3.938v0.79h-1.254V93.443c1.72-0.104,3.45-0.163,5.191-0.172V108.729z M475.936,109.519h-3.921V93.264
			c1.314,0,2.62,0.04,3.921,0.095V109.519z M477.209,91.692h-1.273v0.679c-1.062-0.043-2.124-0.09-3.194-0.098l4.468-4.452V91.692z
			 M478.209,91.692v-4.226c1.505,0.124,2.999,0.288,4.485,0.487l-3.841,3.738H478.209z M483.118,91.692h-3.549l3.549-3.453V91.692z
			 M484.118,88.156c1.465,0.219,2.922,0.47,4.372,0.748l-3.226,2.971v-0.184h-1.146V88.156z M488.809,89.291v4.445
			c-1.175-0.204-2.358-0.377-3.544-0.539v-0.645L488.809,89.291z M489.059,111.102h-0.639v-1.583h-3.155V94.201
			c1.27,0.178,2.536,0.371,3.794,0.595V111.102z M493.523,117.746h-3.365v-0.973h3.365V117.746z M493.523,116.111h-3.365v-1.167
			h3.365V116.111z M495.079,100.522h-2.448v1.107h0.893v12.493h-3.365v-3.021h-0.6V94.887c1.852,0.339,3.693,0.724,5.521,1.161
			V100.522z M500.769,100.522h-5.19v-4.35c1.741,0.425,3.471,0.892,5.19,1.399V100.522z M507.009,100.522h-5.738v-2.805
			c1.926,0.578,3.838,1.208,5.738,1.882V100.522z M507.509,100.522v-0.745c0.189,0.068,0.379,0.132,0.567,0.201
			c0.471,0.172,0.935,0.366,1.404,0.544H507.509z M512.449,100.522h-0.179c-1.279-0.512-2.563-1.01-3.854-1.48
			c-0.15-0.055-0.3-0.106-0.45-0.16l4.482-3.545V100.522z M513.449,100.522v-5.277c1.482,0.396,2.967,0.782,4.455,1.153
			l-4.366,4.124H513.449z M516.529,118.694h-2.636v-1.921h2.636V118.694z M516.529,116.111h-2.636v-1.167h2.636V116.111z
			 M518.391,114.123h-4.497v-11.847c1.506,0.631,3.005,1.286,4.497,1.969V114.123z M522.371,114.123h-3.481v-9.648
			c1.166,0.539,2.322,1.112,3.481,1.679V114.123z M523.831,105.566h-0.358c-1.354-0.672-2.712-1.328-4.078-1.959l4.436-5.406
			V105.566z M524.835,105.566v-7.594c1.592,0.322,3.191,0.614,4.799,0.869l-4.577,6.725H524.835z M529.852,105.566h-4.195
			l4.195-6.162V105.566z M530.852,105.566v-6.539c1.494,0.218,2.997,0.4,4.51,0.543l-2.945,5.995H530.852z M535.542,100.336v11.78
			c-0.074-0.043-0.148-0.084-0.222-0.127v-6.423h-2.345L535.542,100.336z M535.792,113.948h-0.472v-0.796
			c0.157,0.092,0.315,0.178,0.472,0.271V113.948z M536.296,113.948v-0.228c0.128,0.077,0.257,0.152,0.386,0.228H536.296z
			 M541.237,113.948h-2.633c-0.611-0.373-1.222-0.747-1.835-1.113l4.468-11.932V113.948z M552.373,99.064v9.076l-4.333-8.572
			C549.492,99.431,550.938,99.269,552.373,99.064z M545.582,119.007h-1.106v-2.234h1.106V119.007z M545.582,116.111h-1.106v-0.758
			c0.22-0.136,0.439-0.274,0.66-0.409h0.447V116.111z M545.582,113.515c-0.336,0.203-0.673,0.403-1.008,0.608h-0.098v-0.175h-2.238
			v-12.864l3.345,8.768V113.515z M546.682,109.202h-0.817l-3.543-9.29c1.465-0.03,2.915-0.117,4.36-0.229V109.202z M547.682,109.202
			v-9.228l4.691,9.271v0.321c-0.529,0.294-1.053,0.607-1.58,0.907v-1.271H547.682z M552.099,116.111h-1.306v-1.167h1.306V116.111z
			 M552.623,114.123h-1.83v-2.495c0.611-0.349,1.217-0.714,1.83-1.056V114.123z"/>
		<path fill="#1B2934" d="M11.584,107.829c0,0,0.139,0.012,0.35,0c0.075,0.233,0.218,0.424,0.341,0.556
			c-0.04,0.313-0.012,0.555-0.012,0.555s0.881-0.047,1.354-0.614c0.472-0.568,0.36-1.437,0.36-1.437s-0.083,0.004-0.206,0.023
			c0.425-0.651,0.436-1.465,0.436-1.465s-0.738-0.063-1.404,0.246c0.051-0.174,0.079-0.356,0.067-0.552
			c-0.048-0.825-0.81-1.456-0.81-1.456s-0.683,0.71-0.636,1.544c0.028,0.508,0.326,0.94,0.552,1.198
			C11.592,107.066,11.584,107.829,11.584,107.829z"/>
		<path fill="#1B2934" d="M7.469,105.459c0.15,0.341,0.329,0.567,0.329,0.567s0.857-0.576,0.992-1.437
			c0.135-0.861-0.504-1.675-0.504-1.675s-0.679,0.456-0.925,1.162c-0.404-0.36-0.984-0.424-0.984-0.424s-0.139,0.754,0.246,1.273
			C6.854,105.233,7.215,105.383,7.469,105.459z"/>
		<path fill="#1B2934" d="M5.207,107.229c0,0,0.9-1.115,0.733-2.31c-0.17-1.194-1.349-2.012-1.349-2.012s-0.905,1.114-0.734,2.309
			C4.028,106.408,5.207,107.229,5.207,107.229z"/>
		<path fill="#1B2934" d="M84.318,108.094c0.052,0.314,0.151,0.54,0.151,0.54s0.833-0.302,1.123-0.984
			c0.29-0.683-0.071-1.492-0.071-1.492s-0.655,0.238-1.004,0.769c-0.263-0.381-0.727-0.556-0.727-0.556s-0.273,0.6-0.063,1.107
			C83.854,107.781,84.12,107.979,84.318,108.094z"/>
		<path fill="#1B2934" d="M76.985,107.785c0,0,0.483,1.02,1.385,1.302c0.9,0.281,1.881-0.274,1.881-0.274s-0.484-1.016-1.385-1.301
			C77.965,107.229,76.985,107.785,76.985,107.785z"/>
		<path fill="#1B2934" d="M-8.917,108.638c0,0,1.202-1.107,1.21-2.477c0.004-1.373-1.187-2.488-1.187-2.488s-1.202,1.107-1.21,2.477
			C-10.107,107.523-8.917,108.638-8.917,108.638z"/>
		<path fill="#1B2934" d="M-9.965,109.741c0.714,0.282,1.544-0.114,1.544-0.114s-0.338-0.854-1.052-1.136
			c-0.719-0.281-1.544,0.115-1.544,0.115S-10.684,109.459-9.965,109.741z"/>
		<path fill="#1B2934" d="M-5.076,107.562c0,0,0.806,0.786,1.75,0.742c0.941-0.047,1.667-0.908,1.667-0.908
			s-0.802-0.786-1.746-0.738C-4.35,106.701-5.076,107.562-5.076,107.562z"/>
		<path fill="#1B2934" d="M-6.076,107.023c0.111,0.408,0.274,0.694,0.274,0.694s1.063-0.508,1.361-1.452
			c0.293-0.949-0.294-1.969-0.294-1.969s-0.838,0.4-1.23,1.154c-0.396-0.472-1.04-0.639-1.04-0.639s-0.281,0.825,0.067,1.469
			C-6.73,106.665-6.35,106.9-6.076,107.023z"/>
	</g>
</g>
</svg>
